<?xml version="1.0" encoding="UTF-8" standalone="no"?>
<svg
   xmlns:dc="http://purl.org/dc/elements/1.1/"
   xmlns:cc="http://creativecommons.org/ns#"
   xmlns:rdf="http://www.w3.org/1999/02/22-rdf-syntax-ns#"
   xmlns:svg="http://www.w3.org/2000/svg"
   xmlns="http://www.w3.org/2000/svg"
   xmlns:sodipodi="http://sodipodi.sourceforge.net/DTD/sodipodi-0.dtd"
   xmlns:inkscape="http://www.inkscape.org/namespaces/inkscape"
   id="svg2"
   viewBox="0 0 772.75 776.59"
   version="1.0"
   inkscape:version="0.48.2 r9819"
   width="100%"
   height="100%"
   sodipodi:docname="house.svg">
  <defs
     id="defs15" />
  <sodipodi:namedview
     pagecolor="#ffffff"
     bordercolor="#666666"
     borderopacity="1"
     objecttolerance="10"
     gridtolerance="10"
     guidetolerance="10"
     inkscape:pageopacity="0"
     inkscape:pageshadow="2"
     inkscape:window-width="1280"
     inkscape:window-height="719"
     id="namedview13"
     showgrid="false"
     inkscape:zoom="0.30389266"
     inkscape:cx="-199.35814"
     inkscape:cy="388.295"
     inkscape:window-x="0"
     inkscape:window-y="0"
     inkscape:window-maximized="1"
     inkscape:current-layer="svg2" />
  <g
     id="g3767"
     style="opacity:1">
    <path
       id="path4555"
       style="color:#000000;fill:#6e6e6e;stroke:#000000;stroke-width:5.48120021999999985;fill-opacity:1"
       d="M 687.47,391.247 386.38,89.937 85.29,391.247 v 357.27 c 0,3.4667 0.72661,6.7648 1.9984,9.7699 1.2718,3.0052 3.0555,5.7201 5.329,7.9936 2.2735,2.2735 4.9884,4.0572 7.9936,5.329 3.0052,1.2718 6.3031,1.9984 9.7699,1.9984 h 552 c 3.4667,0 6.7648,-0.72659 9.7699,-1.9984 3.0052,-1.2718 5.7201,-3.0556 7.9936,-5.329 2.2735,-2.2735 4.0573,-4.9884 5.3291,-7.9936 1.2718,-3.0052 1.9984,-6.3032 1.9984,-9.7699 v -357.27 z"
       inkscape:connector-curvature="0" />
    <path
       id="path4559"
       style="color:#000000;fill:#6e6e6e;stroke:#000000;stroke-width:5.48120021999999985;fill-opacity:1"
       d="m 103.77273,50.161 c -3.4668,0 -6.710501,0.78083 -9.715701,2.0526 -3.0052,1.27177 -5.7317,2.9949 -8.0052,5.2684 -2.2735,2.2735 -4.065,5.0001 -5.3368,8.0052 -1.2718,3.0052 -1.9842,6.3174 -1.9842,9.7841 v 315.97 l 133.210001,-133.35 v -182.61 c 0,-3.4668 -0.71243,-6.779 -1.9842,-9.7841 -1.2718,-3.0052 -3.0633,-5.7317 -5.3368,-8.0052 -2.2735,-2.2735 -5,-3.9966 -8.0052,-5.2684 -3.0052,-1.2718 -6.3174,-2.0526 -9.7842,-2.0526 h -83.063 z"
       inkscape:connector-curvature="0" />
    <path
       id="rect3345"
       style="color:#000000;fill:#000000;stroke:#000000;stroke-width:5.48120021999999985;fill-opacity:1"
       d="m 385.94,0.004 c -9.6742,0.13769 -18.914,4.0406 -25.757,10.88 l -349.28,349.5 c -14.532,14.532 -14.532,38.093 0,52.624 14.532,14.532 38.093,14.532 52.624,0 l 322.86,-323.07 322.85,323.07 c 14.532,14.532 38.093,14.532 52.624,0 14.532,-14.532 14.532,-38.093 0,-52.624 L 412.811,10.884 C 405.6957,3.7722 396.003,-0.153 385.944,0.004 z"
       inkscape:connector-curvature="0" />
  </g>
  <metadata
     id="metadata11">
    <rdf:RDF>
      <cc:Work>
        <dc:format>image/svg+xml</dc:format>
        <dc:type
           rdf:resource="http://purl.org/dc/dcmitype/StillImage" />
        <cc:license
           rdf:resource="http://creativecommons.org/licenses/publicdomain/" />
        <dc:publisher>
          <cc:Agent
             rdf:about="http://openclipart.org/">
            <dc:title>Openclipart</dc:title>
          </cc:Agent>
        </dc:publisher>
        <dc:title></dc:title>
        <dc:date>2010-08-04T03:40:59</dc:date>
        <dc:description>black and white, clip art, clipart, coloring book, house, line art, outline, </dc:description>
        <dc:source>http://openclipart.org/detail/77047/house-line-art-by-gammillian</dc:source>
        <dc:creator>
          <cc:Agent>
            <dc:title>gammillian</dc:title>
          </cc:Agent>
        </dc:creator>
        <dc:subject>
          <rdf:Bag>
            <rdf:li>black and white</rdf:li>
            <rdf:li>clip art</rdf:li>
            <rdf:li>clipart</rdf:li>
            <rdf:li>coloring book</rdf:li>
            <rdf:li>house</rdf:li>
            <rdf:li>line art</rdf:li>
            <rdf:li>outline</rdf:li>
          </rdf:Bag>
        </dc:subject>
      </cc:Work>
      <cc:License
         rdf:about="http://creativecommons.org/licenses/publicdomain/">
        <cc:permits
           rdf:resource="http://creativecommons.org/ns#Reproduction" />
        <cc:permits
           rdf:resource="http://creativecommons.org/ns#Distribution" />
        <cc:permits
           rdf:resource="http://creativecommons.org/ns#DerivativeWorks" />
      </cc:License>
    </rdf:RDF>
  </metadata>
</svg>
